<?xml version="1.0" encoding="UTF-8" standalone="no"?>
<!-- Created with Inkscape (http://www.inkscape.org/) -->

<svg
   width="45.824745mm"
   height="45.833542mm"
   viewBox="0 0 45.824745 45.833542"
   version="1.1"
   id="svg1"
   xml:space="preserve"
   xmlns="http://www.w3.org/2000/svg"
   xmlns:svg="http://www.w3.org/2000/svg"><defs
     id="defs1" /><g
     id="layer1"
     transform="translate(-12.878527,-225.69783)"><path
       id="path62"
       style="stroke-width:1.5;stroke-linecap:square;paint-order:stroke fill markers"
       d="m 26.403877,225.69789 c -2.620283,2.59481 -3.827673,6.06103 -3.827673,9.6976 h 7.491012 c 1.90622,-1.90973 3.81852,-3.81342 5.72369,-5.7242 -1.9116,-1.9116 -4.99969,-3.9881 -9.387029,-3.9734 z m 9.387029,3.9734 5.72419,5.7242 h 7.4905 c 0.13568,-3.69008 -1.34782,-7.03 -3.82767,-9.6976 -4.38758,-0.0147 -7.47542,2.06191 -9.38702,3.9734 z m 13.21469,5.7242 v 7.49102 c 1.90973,1.90622 3.81342,3.81851 5.7242,5.72368 1.9116,-1.9116 3.9881,-4.99969 3.9734,-9.38703 -2.59481,-2.62028 -6.06103,-3.82767 -9.6976,-3.82767 z m 5.7242,13.2147 -5.7242,5.72368 v 5.2e-4 7.4905 c 3.69008,0.13568 7.03,-1.34783 9.6976,-3.82768 0.0147,-4.38758 -2.06191,-7.47542 -3.9734,-9.38702 z m -5.7242,5.72368 a 13.214694,13.21898 0 0 0 -13.21469,-13.21883 13.214694,13.21898 0 0 0 -13.214702,13.21883 z m -26.429392,0 c -1.90973,-1.90622 -3.813418,-3.81851 -5.724198,-5.72368 -1.9116,1.9116 -3.988101,4.99969 -3.973401,9.38702 2.59481,2.62028 6.061029,3.82768 9.697599,3.82768 z m -5.724198,-5.72368 5.724198,-5.7242 v -7.4905 c -3.69008,-0.13568 -7.029999,1.34782 -9.697599,3.82767 -0.0147,4.38758 2.061911,7.47542 3.973401,9.38703 z m 5.724198,13.22348 c -0.135683,3.69008 1.347818,7.03 3.827673,9.6976 4.387579,0.0147 7.475429,-2.06191 9.387029,-3.9734 l -5.7242,-5.7242 z m 13.214702,5.7242 c 1.9116,1.9116 4.99968,3.9881 9.38702,3.9734 2.62028,-2.59481 3.82767,-6.06103 3.82767,-9.6976 h -7.49101 c -1.90622,1.90973 -3.81851,3.81342 -5.72368,5.7242 z" /></g></svg>
